<svg xmlns="http://www.w3.org/2000/svg" xmlns:xlink="http://www.w3.org/1999/xlink" width="20" height="20" viewBox="0 0 20 20">
  <defs>
    <clipPath id="clip-path">
      <rect width="20" height="20" fill="none"/>
    </clipPath>
  </defs>
  <g id="bx-home" clip-path="url(#clip-path)">
    <path id="Path_6" data-name="Path 6" d="M6,12v8H8V15a1,1,0,0,1,1-1h6a1,1,0,0,1,1,1v5h2V12a1,1,0,0,1,.649-.937L12,4.414,5.351,11.063A1,1,0,0,1,6,12Z" transform="translate(-2 -2)" fill="none"/>
    <path id="Path_7" data-name="Path 7" d="M10,16h4v4H10Z" transform="translate(-2 -2)" fill="none"/>
    <path id="Path_8" data-name="Path 8" d="M3,13H4v8a1,1,0,0,0,1,1H19a1,1,0,0,0,1-1V13h1a1,1,0,0,0,.707-1.707l-9-9a1,1,0,0,0-1.414,0l-9,9A1,1,0,0,0,3,13Zm7,7V16h4v4ZM12,4.414l6.649,6.649A1,1,0,0,0,18,12v8H16V15a1,1,0,0,0-1-1H9a1,1,0,0,0-1,1v5H6V12a1,1,0,0,0-.649-.937L12,4.414Z" transform="translate(-2 -2)" fill="#fff"/>
  </g>
</svg>
